<svg xmlns="http://www.w3.org/2000/svg" viewBox="0 0 1024 420" width="100%" height="100%" fill="currentColor">
<g transform="translate(0,420) scale(0.1,-0.1)">
<path d="M4890 3015 c-257 -35 -489 -126 -715 -278 -128 -87 -343 -303 -428 -432 -164 -249 -250 -496 -279 -797 -13 -138 -2 -320 28 -462 79 -378 288 -718 592 -961 l106 -85 205 0 206 0 -88 40 c-325 144 -616 447 -753 784 -229 562 -92 1191 353 1617 200 191 439 315 723 376 122 26 449 25 570 -1 400 -87 715 -301 937 -638 286 -433 318 -990 85 -1455 -146 -289 -399 -537 -692 -677 l-95 -46 199 0 200 0 92 71 c348 264 585 689 633 1131 83 757 -374 1484 -1088 1732 -254 88 -530 117 -791 81z M4985 2586 c-196 -64 -323 -223 -341 -427 -7 -80 15 -180 58 -261 38 -71 136 -166 210 -202 l54 -26 3 -283 2 -282 -105 105 -105 105 10 45 c36 152 -49 357 -188 457 -97 69 -158 88 -288 88 -106 0 -113 -1 -188 -37 -305 -146 -379 -519 -150 -759 32 -34 77 -72 101 -86 139 -82 344 -83 473 -4 l47 29 192 -193 192 -192 2 -289 3 -289 154 0 154 0 3 290 2 290 192 192 191 191 46 -29 c134 -82 345 -78 483 10 293 186 301 603 14 800 -69 48 -143 73 -231 78 -98 7 -163 -6 -252 -49 -173 -85 -287 -299 -256 -486 l9 -61 -103 -103 -103 -103 0 282 0 282 64 31 c85 42 176 136 217 224 112 240 12 519 -227 633 -75 36 -85 38 -189 40 -71 2 -124 -2 -150 -11z"/>
</g>
</svg>
